<svg width="1018" height="690" viewBox="0 0 1018 690" fill="none" xmlns="http://www.w3.org/2000/svg">
<g clip-path="url(#clip0)">
<path d="M433.699 107.748H433.056L245.566 515.865L327.829 685L482.731 363.033C452.368 328.391 427.57 289.893 418.902 241.441C408.901 194.745 415.171 144.412 433.699 107.748Z" fill="#1E79BF"/>
<path d="M177.003 5.49951H0L326.873 683.918L409.136 513.64L177.003 5.49951Z" fill="url(#paint0_linear)"/>
<path d="M559.994 21.9424C611.236 1.03178 768.662 5.37388 768.662 5.37388L823.854 137.39C823.854 137.39 700.02 136.825 660.111 141.12C617.93 149.068 601.925 204.448 631.128 234.638C684.8 295.144 762.658 336.95 793.71 415.419C814.856 474.985 811.799 548.297 769.869 598.41C726.354 652.693 654.484 675.799 586.768 675.799C510.116 675.908 445.817 675.799 369.307 675.799C392.161 628.852 413.542 581.183 437.995 535.099C491.776 534.613 533.707 539.801 587.379 533.751C619.403 530.616 643.966 494.751 630.893 464.2C618.792 434.856 590.545 417.253 568.051 396.484C516.715 353.079 465.019 301.257 452.918 232.318C434.703 148.503 478.703 53.8883 559.994 21.9424Z" fill="#1E79BF"/>
<path d="M178.083 5.49951H1.08008L327.953 683.918L410.216 513.64L178.083 5.49951Z" fill="#1E79BF"/>
<path d="M367.896 248.918C380.201 316.462 416.489 369.24 458.435 412.817L482.732 362.39C452.369 327.748 427.571 289.579 418.903 241.143C408.902 194.416 415.172 144.412 433.7 107.748H433.057L367.441 248.824C367.63 249.749 367.708 248.009 367.896 248.918Z" fill="#1E79BF"/>
<path d="M907.085 537.043L981.024 507.715L851.219 460.454V425.185L1018.17 493.152V520.411L948.107 549.348L1018.17 578.268V605.543L851.219 673.259V638.226L981.024 590.73L907.085 561.872V537.043Z" fill="#1E79BF"/>
<path d="M1018.17 443.995L851.219 378.16V351.825L1018.17 286.209V320.553L976.541 335.837V394.383L1018.17 409.666V443.995ZM886.253 364.992L953.75 388.975V341.715L886.253 364.992Z" fill="#1E79BF"/>
<path d="M1018.18 274.312H851.221V200.466C851.153 193.097 852.806 185.813 856.049 179.195C859.157 172.827 863.463 167.117 868.73 162.376C874.003 157.698 880.057 153.984 886.615 151.403C892.991 148.778 899.816 147.415 906.711 147.39C917.116 147.279 927.343 150.092 936.227 155.51C944.795 160.588 951.509 168.279 955.382 177.455L1018.18 138.173V174.869L962.201 209.903V241.88H1018.18V274.312ZM933.75 241.864V201.109C933.768 198.191 933.046 195.316 931.65 192.754C930.21 190.148 928.246 187.869 925.881 186.061C923.292 184.092 920.387 182.576 917.291 181.578C913.871 180.494 910.299 179.965 906.711 180.01C903.022 179.966 899.356 180.599 895.895 181.876C892.762 183.047 889.859 184.761 887.32 186.939C884.964 188.96 883.044 191.44 881.677 194.228C880.378 196.822 879.692 199.681 879.671 202.582V241.77L933.75 241.864Z" fill="#1E79BF"/>
<path d="M989.724 5.68726H1018.17V121.683H851.219V7.83474H879.669V89.1886H919.876V18.8073H946.21V89.1102H989.724V5.68726Z" fill="#1E79BF"/>
</g>
<defs>
<linearGradient id="paint0_linear" x1="102.891" y1="22.0368" x2="345.323" y2="588.41" gradientUnits="userSpaceOnUse">
<stop stop-color="#39A7D5"/>
<stop offset="1" stop-color="#23689D"/>
</linearGradient>
<clipPath id="clip0">
<rect width="1018" height="690" fill="white"/>
</clipPath>
</defs>
</svg>
